<?xml version="1.0" ?><svg enable-background="new 0 0 32 32" version="1.1" viewBox="0 0 32 32" xml:space="preserve" xmlns="http://www.w3.org/2000/svg" xmlns:xlink="http://www.w3.org/1999/xlink"><g id="Blue_copy_2"><g><g><g><rect fill="#FFFFFF" height="29" width="29" x="1.5" y="1.5"/></g><g><path d="M30,2v28H2V2H30 M31,1H1v30h30V1L31,1z"/></g></g><g><g><rect fill="#FFFFFF" height="29" width="29" x="1.5" y="1.5"/></g><g><g><path d="M30,2v28H2V2H30 M31,1H1v30h30V1L31,1z"/></g></g></g><g><path d="M28.99,28.99H3.01V3.01h25.98V28.99z M3.51,28.49h24.98V3.51H3.51V28.49z" fill="#CCCCCC"/></g></g><g><path d="M13.892,24.123h3.357v-8.124h2.239l0.297-2.799h-2.536l0.003-1.402c0-0.73,0.07-1.121,1.117-1.121h1.4v-2.8h-2.24    c-2.69,0-3.637,1.358-3.637,3.642V13.2h-1.677V16h1.677V24.123z"/></g></g></svg>