<?xml version="1.0" ?><svg enable-background="new 0 0 32 32" version="1.1" viewBox="0 0 32 32" xml:space="preserve" xmlns="http://www.w3.org/2000/svg" xmlns:xlink="http://www.w3.org/1999/xlink"><g id="Blue_copy_2"><g><g><g><rect fill="#FFFFFF" height="29" width="29" x="1.5" y="1.5"/></g><g><path d="M30,2v28H2V2H30 M31,1H1v30h30V1L31,1z"/></g></g><g><g><rect fill="#FFFFFF" height="29" width="29" x="1.5" y="1.5"/></g><g><g><path d="M30,2v28H2V2H30 M31,1H1v30h30V1L31,1z"/></g></g></g><g><path d="M28.99,28.99H3.01V3.01h25.98V28.99z M3.51,28.49h24.98V3.51H3.51V28.49z" fill="#CCCCCC"/></g></g><g><path d="M22.118,7.843H9.882c-1.152,0-2.039,0.888-2.039,2.039v12.235c0,1.151,0.888,2.039,2.039,2.039h12.235    c1.151,0,2.039-0.888,2.039-2.039V9.882C24.157,8.731,23.269,7.843,22.118,7.843z M16.012,12.795c1.809,0,3.275,1.421,3.275,3.174    c0,1.752-1.466,3.174-3.275,3.174c-1.808,0-3.274-1.422-3.274-3.174C12.738,14.216,14.205,12.795,16.012,12.795z M22.118,21.608    c0,0.357-0.153,0.51-0.51,0.51H10.392c-0.356,0-0.51-0.152-0.51-0.51v-7.137l1.271,0.276c-0.136,0.444-0.211,0.913-0.211,1.399    c0,2.711,2.271,4.911,5.069,4.911c2.8,0,5.069-2.2,5.069-4.911c0-0.487-0.074-0.956-0.21-1.399l1.246-0.276V21.608z     M22.118,12.431c0,0.282-0.228,0.51-0.51,0.51h-2.039c-0.282,0-0.51-0.228-0.51-0.51v-2.039c0-0.282,0.228-0.51,0.51-0.51h2.039    c0.282,0,0.51,0.228,0.51,0.51V12.431z"/></g></g></svg>